<svg width="25" height="24" viewBox="0 0 25 24" fill="none" xmlns="http://www.w3.org/2000/svg">
<path d="M1.5 11.2308C1.5 7.03154 3.96415 4.20771 6.00992 2.75932C6.80183 2.19865 7.78419 2 8.76223 2H17.25C20.1495 2 22.5 4.29494 22.5 7.12717V17.1401C22.5 17.9561 22.1782 18.7464 21.5444 19.2781C19.2431 21.2085 16.9247 22 14.1 22C10.95 22 8.88997 20.5485 7.8 20.9744C5.175 22 2.17877 21.8498 2.55 21.4872C3.075 20.9744 4.65 19.9487 4.65 18.9231C4.65 17.8974 1.5 16.359 1.5 11.2308Z" fill="#D71249"/>
<path fill-rule="evenodd" clip-rule="evenodd" d="M12.8597 10.067C12.6442 10.1132 12.5127 10.2807 12.3866 10.4596C11.7294 9.83032 11.0039 9.7899 10.2889 10.2576C9.42673 10.8118 9.10604 11.7125 9.21645 12.7691C9.32159 13.7449 9.70536 14.5473 10.6412 14.8823C11.2247 15.0901 11.7662 15.015 12.2446 14.5878C12.3708 14.4781 12.4076 14.5012 12.4969 14.6224C12.6705 14.8707 12.9701 14.9572 13.233 14.8476C13.4906 14.7609 13.6694 14.4954 13.6694 14.1952C13.6799 13.0405 13.6851 11.8857 13.6694 10.731C13.664 10.2691 13.2751 9.97466 12.8597 10.067ZM10.7463 13.2656C10.6096 13.0636 10.536 12.821 10.5255 12.567C10.5202 11.7529 10.925 11.2622 11.5033 11.3026C11.7504 11.3084 11.9818 11.4411 12.1289 11.6663C12.4234 12.1051 12.4234 12.8268 12.1289 13.2656C12.0764 13.3407 12.0186 13.4042 11.9555 13.4562C11.5717 13.7679 11.0302 13.6813 10.7463 13.2656ZM18.138 9.96888C16.8762 10.0093 15.9877 11.1178 16.0298 12.6016C16.0088 14.0451 17.0971 15.1362 18.4692 14.9862C19.7256 14.8476 20.5405 13.8141 20.4984 12.3534C20.4564 10.91 19.4786 9.9227 18.138 9.96888ZM17.5755 13.2713C17.4178 13.0346 17.3389 12.7518 17.3494 12.4631C17.3494 11.7414 17.7489 11.2679 18.3167 11.3026C18.5638 11.3084 18.7951 11.4469 18.9424 11.6663C19.242 12.1051 19.242 12.8442 18.9371 13.2829C18.8897 13.3407 18.8424 13.3984 18.7846 13.4446C18.4061 13.7679 17.8646 13.6871 17.5755 13.2713ZM15.5683 12.3476C15.5678 12.0493 15.5672 11.751 15.5672 11.4527C15.5672 11.1527 15.5678 10.852 15.5683 10.5512C15.5695 9.94878 15.5707 9.34555 15.5672 8.74488C15.5672 8.283 15.2991 7.99432 14.8995 8.00008C14.5105 8.00008 14.2529 8.28877 14.2476 8.73333C14.2442 8.91402 14.2453 9.09216 14.2465 9.27114C14.2471 9.36095 14.2476 9.45097 14.2476 9.54163V14.1316C14.2476 14.4954 14.4474 14.8013 14.7102 14.8764C14.7733 14.8938 14.8417 14.8995 14.9047 14.8995C15.2781 14.888 15.5725 14.5473 15.5672 14.1375C15.5707 13.5408 15.5696 12.9442 15.5683 12.3476ZM7.07875 13.495C6.81952 13.4957 6.55651 13.4964 6.28808 13.4964C6.3722 13.3693 6.42477 13.2942 6.48261 13.2191C7.1713 12.2665 7.86 11.3081 8.54871 10.3439C8.74847 10.061 8.94825 9.77811 9.07442 9.44901C9.21637 9.06796 9.06391 8.70421 8.70642 8.57143C8.54344 8.52524 8.38047 8.50215 8.21224 8.50791C7.27645 8.50215 6.3354 8.50215 5.39962 8.50791C5.26819 8.50791 5.13675 8.52524 5.01058 8.55988C4.8108 8.61184 4.65309 8.79083 4.60577 9.01022C4.53743 9.33354 4.72143 9.66264 5.02109 9.73769C5.14727 9.76656 5.27869 9.78388 5.41013 9.78388C5.69402 9.78678 5.97923 9.78678 6.26443 9.78678C6.54964 9.78678 6.83484 9.78676 7.11873 9.78966C7.13534 9.79118 7.15269 9.7891 7.17019 9.78699C7.21913 9.78111 7.26926 9.77509 7.30799 9.84739C7.26068 9.9109 7.21337 9.98018 7.16606 10.0495L7.16605 10.0495C6.35117 11.1811 5.53631 12.3185 4.72669 13.4501C4.52692 13.7331 4.42177 14.0447 4.56897 14.3912C4.71618 14.7376 5.01584 14.8069 5.32076 14.8242C5.49707 14.8366 5.6707 14.8343 5.84548 14.8319C5.91564 14.831 5.98599 14.8301 6.05677 14.8301C6.26985 14.8301 6.48259 14.8304 6.69516 14.8308C7.33229 14.8318 7.96793 14.8329 8.60653 14.8242C9.05865 14.8185 9.30049 14.5124 9.25317 14.0563C9.21111 13.6927 8.98505 13.5021 8.56973 13.4964C8.0791 13.4925 7.58618 13.4937 7.07875 13.495Z" fill="white"/>
</svg>
