<svg width="25" height="24" viewBox="0 0 25 24" fill="none" xmlns="http://www.w3.org/2000/svg">
<path d="M23.0601 9.80198C23.1075 8.42789 22.8071 7.06408 22.1865 5.83718C21.7654 5.33375 21.1811 4.99402 20.5353 4.87718C17.8641 4.6348 15.1819 4.53546 12.5001 4.57958C9.82808 4.53345 7.1555 4.62959 4.4937 4.86758C3.96745 4.9633 3.48044 5.21014 3.0921 5.57798C2.2281 6.37478 2.1321 7.73798 2.0361 8.88998C1.89682 10.9612 1.89682 13.0395 2.0361 15.1108C2.06387 15.7591 2.16042 16.4028 2.3241 17.0308C2.43985 17.5156 2.67404 17.9642 3.0057 18.3364C3.39668 18.7237 3.89503 18.9846 4.4361 19.0852C6.50578 19.3407 8.59119 19.4465 10.6761 19.402C14.0361 19.45 16.9833 19.402 20.4681 19.1332C21.0225 19.0387 21.5349 18.7776 21.9369 18.3844C22.2057 18.1155 22.4064 17.7864 22.5225 17.4244C22.8658 16.3709 23.0344 15.2683 23.0217 14.1604C23.0601 13.6228 23.0601 10.378 23.0601 9.80198ZM10.3305 14.7364V8.79398L16.0137 11.7796C14.4201 12.6628 12.3177 13.6612 10.3305 14.7364Z" fill="#D71249"/>
</svg>
