<svg width="25" height="24" viewBox="0 0 25 24" fill="none" xmlns="http://www.w3.org/2000/svg">
<path d="M22.495 22V21.9991H22.5V14.4971C22.5 10.8271 21.7231 8 17.504 8C15.4758 8 14.1147 9.13186 13.559 10.2049H13.5003V8.34263H9.5V21.9991H13.6654V15.2369C13.6654 13.4565 13.9973 11.7348 16.1655 11.7348C18.3019 11.7348 18.3337 13.7667 18.3337 15.3512V22H22.495Z" fill="#D71249"/>
<path d="M2.5 9H6.5V22H2.5V9Z" fill="#D71249"/>
<path d="M5 2C3.61988 2 2.5 3.11466 2.5 4.48834C2.5 5.86203 3.61988 7 5 7C6.38012 7 7.5 5.86203 7.5 4.48834C7.49913 3.11466 6.37925 2 5 2V2Z" fill="#D71249"/>
</svg>
